<?xml version="1.0" standalone="no"?>
<!DOCTYPE svg PUBLIC "-//W3C//DTD SVG 20010904//EN"
 "http://www.w3.org/TR/2001/REC-SVG-20010904/DTD/svg10.dtd">
<svg version="1.0" xmlns="http://www.w3.org/2000/svg"
 width="700.000000pt" height="700.000000pt" viewBox="0 0 700.000000 700.000000"
 preserveAspectRatio="xMidYMid meet">
<metadata>
Created by potrace 1.14, written by Peter Selinger 2001-2017
</metadata>
<g transform="translate(0.000000,700.000000) scale(0.100000,-0.100000)"
fill="#000000" stroke="none">
<path d="M3437 6064 c-1 -1 -49 -5 -107 -9 -58 -3 -116 -8 -130 -10 -84 -10
-132 -18 -218 -36 -53 -11 -107 -22 -120 -25 -51 -10 -268 -86 -370 -128 -59
-25 -157 -73 -217 -107 -131 -72 -324 -200 -325 -214 0 -8 123 -229 136 -243
1 -2 47 27 101 65 113 78 112 78 218 136 205 114 466 209 655 241 19 3 62 10
95 16 170 29 489 32 650 6 139 -23 181 -31 262 -52 316 -83 647 -250 878 -444
378 -318 636 -724 758 -1190 24 -91 29 -118 43 -204 3 -21 8 -48 10 -60 18
-88 23 -375 10 -521 -29 -317 -140 -659 -306 -941 -46 -79 -134 -210 -149
-224 -4 -3 -31 -36 -62 -75 -125 -156 -320 -329 -515 -457 -239 -156 -600
-297 -857 -333 -27 -3 -59 -8 -70 -11 -118 -23 -511 -22 -622 1 -11 2 -36 7
-55 9 -123 17 -380 90 -490 138 -216 95 -352 173 -507 290 -165 124 -287 244
-422 413 -142 177 -296 459 -361 660 -13 39 -26 73 -29 77 -4 4 -54 -21 -111
-55 -58 -35 -113 -66 -123 -70 -9 -3 -17 -11 -17 -17 0 -23 66 -181 130 -315
172 -353 409 -645 743 -911 104 -84 325 -217 474 -285 235 -110 562 -203 788
-224 193 -19 324 -21 480 -10 116 9 117 9 258 31 209 33 497 128 702 232 169
86 366 215 505 331 74 62 245 232 307 306 56 67 193 251 193 259 0 3 20 36 44
73 24 37 73 129 108 203 56 116 81 176 129 310 44 125 101 385 115 521 2 30 7
70 10 89 6 43 6 315 -1 389 -6 80 -14 153 -20 181 -3 13 -7 42 -11 65 -27 184
-94 407 -183 606 -242 539 -653 973 -1171 1237 -124 63 -161 79 -303 132 -127
49 -359 106 -504 126 -26 3 -56 8 -66 10 -40 7 -353 23 -360 18z"/>
<path d="M3389 5106 c-2 -2 -33 -6 -69 -10 -36 -3 -76 -8 -90 -11 -14 -3 -38
-8 -55 -10 -16 -3 -64 -15 -105 -27 -629 -173 -1089 -712 -1167 -1363 -9 -79
-9 -283 0 -369 26 -242 123 -503 262 -710 191 -285 473 -506 790 -619 83 -29
258 -72 335 -82 86 -11 309 -13 380 -4 36 5 83 12 105 15 56 7 217 51 291 79
324 122 623 368 802 660 41 67 115 218 137 280 9 28 21 59 25 70 23 57 55 205
67 309 9 80 10 295 0 371 -59 492 -330 915 -757 1187 -164 104 -427 197 -630
223 -52 7 -316 16 -321 11z m376 -311 c405 -81 755 -357 932 -735 85 -182 124
-363 123 -565 -1 -101 -2 -124 -14 -205 -80 -530 -509 -977 -1041 -1086 -59
-12 -75 -14 -130 -19 -403 -38 -784 98 -1069 381 -164 163 -290 383 -344 599
-34 133 -42 199 -42 335 -2 507 289 971 747 1190 148 72 313 116 468 127 44 3
81 6 82 7 7 6 222 -16 288 -29z"/>
<path d="M2910 3328 c0 -412 3 -748 8 -749 43 -5 235 -2 239 4 2 4 5 99 5 210
l0 202 40 45 c157 173 179 195 188 180 5 -9 30 -43 57 -76 26 -34 133 -174
238 -313 104 -138 194 -251 200 -252 60 -5 285 -3 285 2 0 4 -31 49 -68 100
-38 52 -107 148 -155 214 -48 66 -90 125 -94 130 -17 21 -269 371 -277 383 -5
8 7 29 36 60 23 26 90 99 148 161 58 63 110 119 115 125 13 15 211 232 252
276 18 19 33 37 33 40 0 3 -70 5 -156 5 l-156 0 -80 -85 c-82 -87 -106 -112
-333 -355 -71 -76 -162 -172 -202 -214 l-72 -76 1 358 c0 197 -3 362 -7 365
-4 4 -60 7 -126 7 l-119 0 0 -747z"/>
</g>
</svg>
